<?xml version="1.0" encoding="UTF-8" standalone="no"?>
<svg
   xmlns:dc="http://purl.org/dc/elements/1.1/"
   xmlns:cc="http://creativecommons.org/ns#"
   xmlns:rdf="http://www.w3.org/1999/02/22-rdf-syntax-ns#"
   xmlns:svg="http://www.w3.org/2000/svg"
   xmlns="http://www.w3.org/2000/svg"
   viewBox="0 0 105.62667 104.37333"
   height="104.37333"
   width="105.62667"
   xml:space="preserve"
   id="svg2"
   version="1.1"><metadata
     id="metadata8"><rdf:RDF><cc:Work
         rdf:about=""><dc:format>image/svg+xml</dc:format><dc:type
           rdf:resource="http://purl.org/dc/dcmitype/StillImage" /></cc:Work></rdf:RDF></metadata><defs
     id="defs6" /><g
     transform="matrix(1.3333333,0,0,-1.3333333,0,104.37333)"
     id="g10"><g
       transform="scale(0.1)"
       id="g12"><path
         id="path14"
         style="fill:#ffffff;fill-opacity:1;fill-rule:nonzero;stroke:none"
         d="m 35.7617,288.242 11.8594,8.203 -0.0625,0.215 -14.4766,0.703 z m 22.1485,18.34 c 0.4101,-0.019 0.7421,-0.227 0.8828,-0.703 l 3.3047,-11.262 c 0.1445,-0.476 -0.0235,-0.828 -0.3555,-1.082 L 25.4961,265.664 c -0.3242,-0.234 -0.6367,-0.098 -0.7617,0.313 l -3.3477,11.386 c -0.1406,0.481 0.0235,0.828 0.3555,1.075 l 5.8594,4.121 -4.4883,15.254 -7.1563,0.292 c -0.4101,0.04 -0.7422,0.235 -0.8828,0.723 l -3.332,11.309 c -0.1172,0.418 0.0703,0.703 0.4844,0.664 l 45.6836,-4.219" /><path
         id="path16"
         style="fill:#ffffff;fill-opacity:1;fill-rule:nonzero;stroke:none"
         d="m 59.5977,228.828 10.3281,10.098 -0.0899,0.195 -14.3867,-1.758 z m 18.7773,21.836 c 0.4102,0.039 0.7695,-0.117 0.9883,-0.566 l 5.125,-10.528 c 0.2226,-0.449 0.1172,-0.82 -0.168,-1.132 L 53.2422,204.836 C 52.9609,204.531 52.6328,204.609 52.4414,205 L 47.25,215.664 c -0.2187,0.449 -0.1094,0.82 0.1719,1.121 l 5.0898,5.051 -6.9453,14.277 -7.1055,-0.918 c -0.414,-0.039 -0.7695,0.118 -0.9921,0.567 l -5.1524,10.586 c -0.1914,0.39 -0.0547,0.703 0.3555,0.742 l 45.7031,3.574" /><path
         id="path18"
         style="fill:#ffffff;fill-opacity:1;fill-rule:nonzero;stroke:none"
         d="m 100.328,209.883 c 0.317,0.234 0.695,0.137 0.942,-0.215 l 6.406,-9.199 c 0.25,-0.352 0.195,-0.742 -0.121,-0.957 L 80.6211,180.73 c -0.2148,-0.144 -0.2344,-0.339 -0.0742,-0.574 l 11.8242,-16.992 c 0.25,-0.351 0.2031,-0.742 -0.1133,-0.957 l -7.2109,-5.019 c -0.3242,-0.235 -0.6992,-0.137 -0.9414,0.214 l -18.8946,27.129 c -0.2461,0.352 -0.1992,0.742 0.1211,0.957 l 34.996,24.395" /><path
         id="path20"
         style="fill:#ffffff;fill-opacity:1;fill-rule:nonzero;stroke:none"
         d="m 131.086,143.508 c 2.613,-2.766 5.082,-3.203 7.289,-1.117 2.25,2.14 1.945,4.523 -0.723,7.336 l -3.511,3.711 c -0.2,0.195 -0.391,0.214 -0.582,0.039 l -6.008,-5.684 c -0.188,-0.176 -0.184,-0.371 0.015,-0.586 z m -16.379,-8.481 3.953,-4.168 c 2.727,-2.871 5.371,-3.125 7.723,-0.91 2.207,2.09 2.187,4.836 -0.539,7.707 l -3.953,4.168 c -0.203,0.207 -0.391,0.227 -0.582,0.051 l -6.618,-6.27 c -0.187,-0.175 -0.183,-0.371 0.016,-0.578 z m 16.199,33.36 c 0.285,0.265 0.672,0.234 0.969,-0.078 l 13.699,-14.442 c 7.528,-7.929 7.567,-14.824 2.489,-19.621 -3.282,-3.113 -7.165,-3.621 -10.958,-2.156 l -0.093,-0.098 c 1.582,-3.445 1.133,-8.332 -2.578,-11.847 -6.246,-5.907 -13.852,-3.805 -20.922,3.656 l -13.5589,14.285 c -0.3008,0.312 -0.3086,0.691 -0.0273,0.957 l 30.9802,29.344" /><path
         id="path22"
         style="fill:#ffffff;fill-opacity:1;fill-rule:nonzero;stroke:none"
         d="m 171.797,89.9219 c 1.363,0.832 2.707,2.3242 5.902,6.4726 3.196,4.1405 4.305,5.8245 4.758,7.3435 0.82,2.473 -0.078,4.953 -2.59,6.875 -2.504,1.938 -5.14,2.16 -7.324,0.742 -1.359,-0.828 -2.699,-2.324 -5.902,-6.472 -3.196,-4.153 -4.301,-5.8205 -4.754,-7.3439 -0.817,-2.4727 0.082,-4.961 2.586,-6.8868 2.504,-1.9218 5.14,-2.1445 7.324,-0.7304 z m -21.461,12.4141 c 1.144,3.355 2.496,5.586 6.168,10.328 3.672,4.766 5.476,6.641 8.441,8.598 6.434,4.109 14.289,2.644 21.125,-2.602 6.836,-5.254 10.262,-12.461 7.934,-19.7147 -1.09,-3.4101 -2.496,-5.5859 -6.168,-10.3437 -3.672,-4.7618 -5.418,-6.6758 -8.441,-8.5899 -6.43,-4.1054 -14.282,-2.6406 -21.125,2.6172 -6.829,5.2422 -10.262,12.4375 -7.934,19.7071" /><path
         id="path24"
         style="fill:#ffffff;fill-opacity:1;fill-rule:nonzero;stroke:none"
         d="m 232.031,71.4727 c 1.36,2.5117 0.328,5.1289 -2.828,6.8476 l -5.933,3.2227 c -0.25,0.1367 -0.442,0.0898 -0.567,-0.1289 l -4.058,-7.5078 c -0.125,-0.2266 -0.067,-0.4102 0.187,-0.5469 l 5.934,-3.2227 c 3.156,-1.7187 5.91,-1.164 7.265,1.336 z M 218.469,45.0781 c -0.574,0.3125 -0.672,0.586 -0.649,1.0821 l 0.653,16.7226 -4.102,2.2344 c -0.254,0.1367 -0.441,0.0859 -0.562,-0.1367 l -6.961,-12.8438 c -0.184,-0.3398 -0.559,-0.4258 -0.942,-0.2344 l -9.843,5.3555 c -0.379,0.211 -0.504,0.5742 -0.321,0.918 l 20.321,37.5156 c 0.187,0.3438 0.57,0.4297 0.941,0.2266 l 17.476,-9.5039 c 9.844,-5.3516 12.661,-13.5703 8.719,-20.8594 -2.617,-4.832 -7.265,-7.3789 -12.918,-6.9531 l -0.09,-19.0235 c 0.004,-0.4375 -0.371,-0.6836 -0.812,-0.4375 l -10.91,5.9375" /><path
         id="path26"
         style="fill:#ffffff;fill-opacity:1;fill-rule:nonzero;stroke:none"
         d="m 258.352,50.3047 c 1.996,5.6719 3.128,8.0039 5.324,10.7969 4.832,5.9179 12.73,6.9726 20.926,4.1015 8.464,-2.9765 12.898,-8.5156 13.601,-14.7265 0.055,-0.4961 -0.211,-0.8203 -0.683,-0.8594 l -9.981,-0.2539 c -0.469,-0.0391 -0.836,0.2148 -0.93,0.5976 -0.765,2.8008 -2.207,4.543 -5.382,5.6641 -3.118,1.1016 -5.618,0.4688 -7.247,-1.5625 -1.058,-1.2812 -1.835,-3.0547 -3.585,-8 -1.739,-4.9414 -2.204,-6.9023 -2.215,-8.4727 0.058,-2.621 1.683,-4.707 5,-5.871 2.98,-1.043 5.761,-0.7227 7.25,1.164 0.531,0.625 0.965,1.4219 1.355,2.5391 0.09,0.2304 -0.004,0.4062 -0.277,0.5078 l -5.008,1.7539 c -0.406,0.1367 -0.594,0.4805 -0.465,0.8398 l 2.434,6.8985 c 0.125,0.3672 0.48,0.5156 0.886,0.3672 l 16.458,-5.7774 c 0.402,-0.1406 0.582,-0.4804 0.457,-0.8398 l -1.118,-3.1875 c -1.398,-3.9531 -2.765,-6.9727 -4.617,-9.1992 -4.867,-6.0313 -12.676,-7.4688 -21.066,-4.5196 -8.196,2.8789 -13.688,8.6524 -13.742,16.2813 0.035,3.5508 0.625,6.082 2.625,11.7578" /><path
         id="path28"
         style="fill:#ffffff;fill-opacity:1;fill-rule:nonzero;stroke:none"
         d="m 347.289,20.8594 2.418,26.1992 c 0.039,0.3906 0.348,0.6172 0.777,0.5781 l 11.161,-1.0429 c 0.429,-0.0508 0.695,-0.3321 0.656,-0.7266 L 359.82,18.9648 c -0.406,-4.375 2.078,-7.1484 6.16,-7.5312 4.223,-0.3867 6.958,1.8867 7.364,6.2617 l 2.48,26.9024 c 0.035,0.3906 0.344,0.625 0.774,0.5859 l 11.168,-1.0508 c 0.425,-0.039 0.687,-0.3164 0.648,-0.7031 L 386,17.2188 C 384.922,5.56641 376.641,0.242188 365.051,1.32813 353.242,2.44141 346.215,9.19922 347.289,20.8594" /><path
         id="path30"
         style="fill:#ffffff;fill-opacity:1;fill-rule:nonzero;stroke:none"
         d="m 407.574,43.2148 c -0.031,0.379 0.235,0.6641 0.672,0.6797 l 10.539,0.7032 c 0.508,0.0312 1.024,-0.1329 1.27,-0.5664 l 16.347,-23.8868 0.293,0.0196 -1.652,24.8554 c -0.027,0.3789 0.246,0.6641 0.676,0.6953 l 10.039,0.6641 c 0.43,0.0156 0.742,-0.2187 0.762,-0.6094 L 449.352,3.16406 C 449.371,2.78125 449.098,2.5 448.668,2.46875 L 438.129,1.77734 c -0.496,-0.03125 -1.016,0.13672 -1.258,0.56641 L 420.66,26.1719 420.23,26.1406 421.879,1.35547 c 0.019,-0.38672 -0.242,-0.664064 -0.672,-0.691407 L 411.168,0 c -0.43,-0.03125 -0.742,0.214844 -0.762,0.59375 l -2.832,42.62105" /><path
         id="path32"
         style="fill:#ffffff;fill-opacity:1;fill-rule:nonzero;stroke:none"
         d="m 466.285,49.2773 c -0.078,0.379 0.156,0.6915 0.586,0.7735 l 10.996,2.168 c 0.43,0.0859 0.762,-0.1211 0.828,-0.4922 l 8.274,-41.92191 c 0.078,-0.37891 -0.156,-0.6836 -0.586,-0.77344 L 475.387,6.875 c -0.43,-0.08984 -0.762,0.10547 -0.84,0.48828 l -8.262,41.91402" /><path
         id="path34"
         style="fill:#ffffff;fill-opacity:1;fill-rule:nonzero;stroke:none"
         d="m 524.488,19.1406 c -0.48,-0.1562 -0.812,-0.0703 -1.093,0.3125 l -28.262,35.5157 c -0.266,0.3242 -0.098,0.7226 0.379,0.8789 l 11.172,3.7304 c 0.48,0.1563 0.812,0.0782 1.086,-0.3125 l 16.64,-22.4218 0.203,0.082 -0.429,27.8203 c -0.008,0.4766 0.207,0.75 0.683,0.9062 l 11.106,3.711 c 0.468,0.1562 0.781,-0.0781 0.761,-0.4844 l -1.289,-45.3945 c 0,-0.4766 -0.195,-0.75 -0.683,-0.918 l -10.274,-3.4258" /><path
         id="path36"
         style="fill:#ffffff;fill-opacity:1;fill-rule:nonzero;stroke:none"
         d="m 551.676,75.6367 c -0.176,0.3477 -0.039,0.7031 0.351,0.9063 l 28.407,14.5976 c 0.382,0.1992 0.761,0.0977 0.937,-0.2422 l 3.82,-7.414 c 0.176,-0.3399 0.039,-0.7031 -0.343,-0.8946 l -17.43,-8.9687 c -0.254,-0.125 -0.324,-0.3125 -0.207,-0.5352 l 3.059,-5.9062 c 0.117,-0.2383 0.293,-0.2852 0.546,-0.1602 l 14.305,7.3555 c 0.391,0.1953 0.762,0.0977 0.938,-0.2422 l 3.742,-7.2461 c 0.176,-0.332 0.039,-0.707 -0.352,-0.9023 l -14.297,-7.3438 c -0.254,-0.1328 -0.332,-0.3125 -0.214,-0.5468 l 3.23,-6.2696 c 0.129,-0.2148 0.312,-0.2695 0.566,-0.1367 l 17.434,8.957 c 0.379,0.2032 0.75,0.1094 0.937,-0.2461 l 3.829,-7.4023 c 0.175,-0.3516 0.027,-0.7109 -0.352,-0.918 l -28.41,-14.5898 c -0.391,-0.2031 -0.762,-0.1055 -0.938,0.2461 l -19.558,37.9023" /><path
         id="path38"
         style="fill:#ffffff;fill-opacity:1;fill-rule:nonzero;stroke:none"
         d="m 625.758,104.395 c -1.66,2.304 -4.473,2.507 -7.383,0.402 l -5.48,-3.969 c -0.235,-0.152 -0.274,-0.351 -0.118,-0.566 l 4.993,-6.9143 c 0.156,-0.211 0.351,-0.2344 0.585,-0.0586 l 5.469,3.957 c 2.91,2.1094 3.594,4.8439 1.934,7.1489 z m 17.91,-23.6802 c -0.527,-0.371 -0.82,-0.3554 -1.25,-0.1093 l -14.785,7.8242 -3.789,-2.7461 c -0.235,-0.168 -0.274,-0.3633 -0.117,-0.5664 l 8.554,-11.8477 c 0.235,-0.3086 0.137,-0.6914 -0.195,-0.9336 l -9.094,-6.582 c -0.351,-0.2578 -0.73,-0.2187 -0.957,0.0938 l -25,34.6133 c -0.234,0.309 -0.144,0.68 0.195,0.934 l 16.125,11.679 c 9.09,6.574 17.723,5.547 22.579,-1.148 3.222,-4.477 3.496,-9.77 0.664,-14.6916 l 17.09,-8.3086 c 0.41,-0.1875 0.457,-0.625 0.046,-0.9297 l -10.066,-7.2813" /><path
         id="path40"
         style="fill:#ffffff;fill-opacity:1;fill-rule:nonzero;stroke:none"
         d="m 667.164,106.609 c -0.449,-0.078 -0.801,0.196 -0.781,0.688 l -0.254,9.414 c -0.02,0.426 0.293,0.719 0.664,0.738 3.73,0.434 8.457,2.188 11.914,5.637 3.203,3.184 3.711,6.035 1.973,7.793 -1.309,1.328 -3.145,1.23 -6.973,-1.738 l -2.07,-1.59 c -8.438,-6.465 -15.508,-7.485 -21.289,-1.664 -5.782,5.832 -4.61,14.738 3.222,22.519 4.785,4.758 10.606,7.864 15.801,8.84 0.43,0.078 0.703,-0.098 0.781,-0.586 l 1.153,-8.789 c 0.019,-0.43 -0.196,-0.734 -0.586,-0.851 -3.887,-0.957 -7.364,-2.657 -10.117,-5.387 -2.539,-2.531 -2.727,-4.895 -1.211,-6.41 1.367,-1.375 3.339,-1.129 7.031,1.789 l 2.051,1.582 c 8.535,6.582 15.41,7.383 21.289,1.465 5.742,-5.782 5.039,-14.844 -4.239,-24.051 -5.644,-5.61 -13.496,-9.113 -18.359,-9.399" /><path
         id="path42"
         style="fill:#ffffff;fill-opacity:1;fill-rule:nonzero;stroke:none"
         d="m 680.094,175.508 c -0.313,0.246 -0.332,0.625 -0.059,0.976 l 6.914,8.809 c 0.274,0.344 0.645,0.41 0.957,0.176 L 721.5,159.102 c 0.293,-0.235 0.313,-0.625 0.039,-0.957 l -6.914,-8.821 c -0.273,-0.34 -0.645,-0.41 -0.957,-0.164 l -33.574,26.348" /><path
         id="path44"
         style="fill:#ffffff;fill-opacity:1;fill-rule:nonzero;stroke:none"
         d="m 742.496,188.309 -0.117,-0.184 c -0.078,-0.117 -0.176,-0.156 -0.352,-0.203 -0.097,-0.031 -0.195,-0.063 -0.293,0.008 l -0.175,0.097 -28.028,17.11 c -0.156,0.117 -0.332,0.058 -0.508,-0.098 l -0.039,-0.059 -6.25,-10.253 -0.097,-0.188 c -0.078,-0.125 -0.176,-0.144 -0.274,-0.184 l -0.078,-0.019 c 0,0 -0.058,0.027 -0.097,-0.031 -0.157,0.011 -0.254,0.07 -0.372,0.136 l -7.5,4.582 c -0.273,0.176 -0.39,0.489 -0.293,0.762 l 0.118,0.195 19.511,32.051 c 0.098,0.196 0.235,0.274 0.411,0.332 0,0 0.097,0.02 0.156,-0.011 0.097,0.031 0.234,0.031 0.351,-0.047 l 7.5,-4.571 c 0.176,-0.097 0.293,-0.273 0.332,-0.461 0.02,-0.085 0,-0.242 -0.078,-0.371 l -0.078,-0.125 -6.25,-10.254 c -0.058,-0.117 -0.098,-0.175 -0.078,-0.273 -0.039,-0.059 0.02,-0.098 0.039,-0.195 l 0.156,-0.098 28.028,-17.117 0.156,-0.11 c 0.137,-0.156 0.156,-0.253 0.156,-0.507 0.02,-0.086 -0.058,-0.215 -0.137,-0.332 l -5.82,-9.582" /><path
         id="path46"
         style="fill:#ffffff;fill-opacity:1;fill-rule:nonzero;stroke:none"
         d="m 725.875,247.227 c -0.352,0.144 -0.488,0.507 -0.312,0.918 l 12.421,29.433 c 0.176,0.399 0.528,0.567 0.879,0.41 l 7.696,-3.242 c 0.351,-0.156 0.468,-0.508 0.312,-0.918 l -7.617,-18.058 c -0.117,-0.262 -0.059,-0.45 0.176,-0.547 l 6.152,-2.586 c 0.234,-0.11 0.41,-0.02 0.508,0.234 l 6.269,14.824 c 0.176,0.399 0.508,0.567 0.879,0.41 l 7.5,-3.164 c 0.352,-0.156 0.489,-0.527 0.313,-0.918 l -6.25,-14.824 c -0.117,-0.254 -0.039,-0.449 0.195,-0.547 l 6.504,-2.734 c 0.234,-0.098 0.41,-0.02 0.527,0.242 l 7.618,18.059 c 0.156,0.398 0.507,0.566 0.878,0.41 l 7.676,-3.242 c 0.352,-0.149 0.489,-0.508 0.313,-0.91 l -12.403,-29.442 c -0.175,-0.398 -0.527,-0.566 -0.898,-0.41 l -39.336,16.602" /><path
         id="path48"
         style="fill:#ffffff;fill-opacity:1;fill-rule:nonzero;stroke:none"
         d="m 789.391,294.988 -0.059,-0.203 c -0.019,-0.137 -0.117,-0.195 -0.273,-0.305 -0.079,-0.046 -0.157,-0.105 -0.274,-0.066 l -0.195,0.039 -31.777,8.203 c -0.176,0.059 -0.352,-0.058 -0.469,-0.234 v -0.078 l -3.008,-11.614 -0.059,-0.203 c -0.039,-0.136 -0.117,-0.195 -0.195,-0.254 l -0.078,-0.05 c 0,0 -0.059,0.011 -0.078,-0.047 -0.137,-0.039 -0.274,-0.012 -0.391,0.019 l -8.515,2.196 c -0.313,0.089 -0.508,0.363 -0.508,0.656 l 0.058,0.207 9.395,36.297 c 0.058,0.215 0.156,0.332 0.312,0.437 0,0 0.098,0.051 0.157,0.039 0.078,0.051 0.234,0.09 0.351,0.063 l 8.496,-2.199 c 0.196,-0.047 0.352,-0.168 0.449,-0.332 0.04,-0.098 0.079,-0.254 0.04,-0.391 l -0.04,-0.137 -3.007,-11.609 c -0.039,-0.149 -0.059,-0.207 -0.02,-0.305 0,-0.058 0.059,-0.078 0.098,-0.168 l 0.195,-0.047 31.758,-8.203 0.176,-0.051 c 0.175,-0.117 0.215,-0.203 0.293,-0.437 0.039,-0.098 0.019,-0.234 -0.02,-0.371 l -2.812,-10.852" /><path
         id="path50"
         style="fill:#ffffff;fill-opacity:1;fill-rule:nonzero;stroke:none"
         d="M 29.3125,418.617 5.98828,410.383 5.97656,410.164 28.6016,400.117 Z M 0.605469,408.355 C 0.222656,408.512 -0.0234375,408.809 0,409.238 l 0.0976563,2.582 c 0.0156247,0.504 0.2812497,0.707 0.6718747,0.836 L 44.0195,427.977 c 0.3907,0.128 0.6446,-0.094 0.625,-0.528 l -0.1093,-2.797 c -0.0196,-0.504 -0.1602,-0.781 -0.6797,-0.902 l -10.9453,-3.898 -0.8125,-21.231 10.6171,-4.707 c 0.5079,-0.234 0.625,-0.527 0.6055,-0.953 l -0.1055,-2.805 c -0.0156,-0.429 -0.2812,-0.625 -0.6679,-0.468 L 0.605469,408.355" /><path
         id="path52"
         style="fill:#ffffff;fill-opacity:1;fill-rule:nonzero;stroke:none"
         d="m 44.1563,449.727 1.9648,10.734 c 1.1445,6.215 -0.0703,10.672 -4.3438,13.199 -1.9531,1.16 -4.1171,1.914 -11.4257,3.25 -7.3203,1.328 -9.6094,1.379 -11.8516,0.985 -4.8867,-0.86 -7.6094,-4.598 -8.75391,-10.809 L 7.77734,456.352 c -0.05859,-0.282 0.04688,-0.45 0.29688,-0.493 l 35.61718,-6.488 c 0.2578,-0.047 0.4102,0.07 0.4649,0.356 z m -39.99614,2.679 c -0.37891,0.074 -0.58594,0.407 -0.50782,0.832 l 2.76563,15.032 c 1.46484,7.984 5.28123,12.691 11.58983,13.734 2.711,0.453 5.207,0.437 13.0899,-1.004 7.8906,-1.434 10.2265,-2.293 12.6054,-3.676 5.5235,-3.199 7.4297,-8.941 5.961,-16.926 l -2.7578,-15.043 c -0.086,-0.425 -0.3868,-0.66 -0.7735,-0.589 l -41.97264,7.64" /><path
         id="path54"
         style="fill:#ffffff;fill-opacity:1;fill-rule:nonzero;stroke:none"
         d="m 26.0391,537.523 c -0.3555,0.153 -0.4844,0.52 -0.3164,0.915 l 1.0468,2.437 c 0.1993,0.465 0.4805,0.809 1.0743,0.871 l 42.8007,8.145 0.0821,0.199 -33.2305,14.23 c -0.3555,0.153 -0.4844,0.52 -0.3125,0.914 l 1.043,2.442 c 0.1679,0.394 0.5195,0.562 0.875,0.41 l 39.2422,-16.801 c 0.3593,-0.156 0.4843,-0.523 0.3085,-0.918 l -1.0976,-2.574 c -0.1719,-0.395 -0.457,-0.742 -1.0742,-0.867 L 33.7031,539 33.5898,538.734 66.8867,524.48 c 0.3594,-0.156 0.4805,-0.519 0.3125,-0.917 l -1.0469,-2.442 c -0.1679,-0.394 -0.5156,-0.555 -0.875,-0.402 l -39.2382,16.804" /><path
         id="path56"
         style="fill:#ffffff;fill-opacity:1;fill-rule:nonzero;stroke:none"
         d="m 94.3789,578.852 c -0.2187,-0.368 -0.5898,-0.477 -0.9219,-0.278 l -14.8789,8.981 -29.1328,0.488 c -0.3515,0.047 -0.5742,0.434 -0.3125,0.863 l 1.4492,2.395 c 0.293,0.492 0.5157,0.609 1.1094,0.586 l 24.3164,-0.348 0.1055,0.184 -11.7539,21.168 c -0.293,0.511 -0.293,0.761 0.0039,1.254 l 1.4101,2.335 c 0.2969,0.489 0.6993,0.415 0.9063,0.125 l 14.0078,-25.546 14.8789,-8.985 c 0.3359,-0.199 0.4102,-0.582 0.1875,-0.945 l -1.375,-2.277" /><path
         id="path58"
         style="fill:#ffffff;fill-opacity:1;fill-rule:nonzero;stroke:none"
         d="m 79.3125,634.535 c -0.3047,0.238 -0.3281,0.625 -0.0586,0.961 l 17.3828,21.871 c 0.2617,0.332 0.6446,0.395 0.9531,0.156 l 1.711,-1.371 c 0.3086,-0.238 0.332,-0.625 0.0625,-0.961 L 84.3555,636.305 c -0.1875,-0.227 -0.1719,-0.418 0.0312,-0.578 l 12.2383,-9.743 c 0.207,-0.16 0.3984,-0.125 0.5742,0.102 l 12.9058,16.242 c 0.27,0.332 0.653,0.402 0.954,0.156 l 1.722,-1.367 c 0.305,-0.238 0.324,-0.625 0.055,-0.961 L 99.9258,623.91 c -0.1758,-0.222 -0.1641,-0.418 0.039,-0.582 l 12.7382,-10.14 c 0.207,-0.161 0.399,-0.125 0.574,0.097 l 15.012,18.887 c 0.27,0.34 0.652,0.402 0.953,0.164 l 1.719,-1.375 c 0.305,-0.238 0.328,-0.625 0.062,-0.961 l -17.378,-21.863 c -0.27,-0.34 -0.653,-0.403 -0.954,-0.164 l -33.3785,26.562" /><path
         id="path60"
         style="fill:#ffffff;fill-opacity:1;fill-rule:nonzero;stroke:none"
         d="m 170.699,668.832 c -0.332,-0.281 -0.664,-0.223 -1.019,-0.019 l -39.606,21.984 c -0.597,0.258 -0.582,0.687 -0.203,1.016 l 1.926,1.613 c 0.492,0.422 0.742,0.461 1.234,0.203 l 34.707,-19.277 0.11,0.089 -13.356,37.278 c -0.172,0.535 -0.09,0.769 0.356,1.14 l 1.972,1.668 c 0.387,0.325 0.817,0.258 1.024,-0.324 l 14.961,-42.754 c 0.14,-0.386 0.086,-0.765 -0.242,-1.051 l -1.864,-1.566" /><path
         id="path62"
         style="fill:#ffffff;fill-opacity:1;fill-rule:nonzero;stroke:none"
         d="m 175.973,727.457 c -0.207,0.324 -0.106,0.695 0.261,0.93 l 23.594,14.968 c 0.367,0.227 0.746,0.161 0.957,-0.164 l 1.18,-1.855 c 0.207,-0.324 0.101,-0.695 -0.262,-0.926 l -20.379,-12.93 c -0.246,-0.156 -0.301,-0.343 -0.156,-0.558 l 8.387,-13.203 c 0.14,-0.219 0.332,-0.246 0.574,-0.098 l 17.531,11.121 c 0.363,0.235 0.742,0.168 0.953,-0.156 l 1.176,-1.856 c 0.211,-0.328 0.109,-0.703 -0.258,-0.933 L 192.004,710.68 c -0.246,-0.157 -0.293,-0.344 -0.164,-0.559 l 8.742,-13.75 c 0.137,-0.215 0.324,-0.25 0.57,-0.094 l 20.387,12.926 c 0.359,0.235 0.742,0.172 0.949,-0.156 l 1.18,-1.859 c 0.211,-0.329 0.105,-0.7 -0.262,-0.93 l -23.597,-14.965 c -0.36,-0.23 -0.743,-0.164 -0.954,0.16 l -22.882,36.004" /><path
         id="path64"
         style="fill:#ffffff;fill-opacity:1;fill-rule:nonzero;stroke:none"
         d="m 235.016,717.035 1.058,2.289 c 0.153,0.36 0.535,0.539 0.973,0.461 2.113,-0.43 5.293,-0.426 8.082,0.895 5.578,2.636 7.851,7.062 4.726,13.656 l -12.882,27.191 c -0.16,0.352 -0.016,0.707 0.375,0.891 l 2.398,1.137 c 0.391,0.183 0.762,0.074 0.93,-0.274 l 12.879,-27.191 c 4.039,-8.524 0.855,-14.883 -7,-18.594 -3.828,-1.808 -8.157,-2.066 -11.09,-1.242 -0.371,0.109 -0.606,0.426 -0.449,0.781" /><path
         id="path66"
         style="fill:#ffffff;fill-opacity:1;fill-rule:nonzero;stroke:none"
         d="m 265.266,773.238 c -0.121,0.364 0.07,0.703 0.48,0.828 l 26.555,8.672 c 0.402,0.133 0.762,-0.023 0.883,-0.39 l 0.679,-2.09 c 0.121,-0.367 -0.078,-0.703 -0.488,-0.836 l -22.93,-7.488 c -0.273,-0.09 -0.371,-0.25 -0.289,-0.5 l 4.84,-14.856 c 0.082,-0.246 0.258,-0.324 0.531,-0.234 l 19.727,6.437 c 0.406,0.137 0.762,-0.019 0.879,-0.39 l 0.683,-2.082 c 0.122,-0.368 -0.074,-0.704 -0.488,-0.836 l -19.723,-6.442 c -0.273,-0.086 -0.371,-0.258 -0.292,-0.504 l 5.05,-15.472 c 0.075,-0.242 0.246,-0.321 0.524,-0.231 l 22.937,7.489 c 0.41,0.136 0.762,-0.02 0.883,-0.391 l 0.68,-2.09 c 0.117,-0.367 -0.078,-0.703 -0.485,-0.832 l -26.55,-8.672 c -0.411,-0.133 -0.762,0.024 -0.879,0.391 l -13.207,40.519" /><path
         id="path68"
         style="fill:#ffffff;fill-opacity:1;fill-rule:nonzero;stroke:none"
         d="m 590.191,271.016 c -10.937,4.902 -22.355,8.984 -40.957,20.312 -52.238,31.856 -68.144,79.266 -38.761,161.981 17.004,47.89 25.175,88.277 20.968,131.847 -0.586,0.399 -1.191,0.766 -1.777,1.153 -2.746,-54.715 -22.922,-88.743 -59.062,-146.329 -76.563,-122.011 1.171,-211.425 38.105,-239.238 32.566,16.414 60.547,40.653 81.484,70.274" /><path
         id="path70"
         style="fill:#ffffff;fill-opacity:1;fill-rule:nonzero;stroke:none"
         d="m 435.133,444.438 c 59.043,69.488 78.222,101.531 82.215,149.335 -0.633,0.348 -1.258,0.739 -1.895,1.086 C 501.781,537.656 467.477,507.34 377.094,447.137 279.723,382.305 284.105,270.859 308.902,201.473 c 30.196,-15.496 64.364,-24.285 100.614,-24.285 7.726,0 15.363,0.402 22.882,1.171 -70.293,106.661 -65.402,185.868 2.735,266.079" /><path
         id="path72"
         style="fill:#ffffff;fill-opacity:1;fill-rule:nonzero;stroke:none"
         d="m 399.039,495.715 c 65.215,28.289 96.133,71.262 105.066,104.914 -0.574,0.277 -1.16,0.531 -1.738,0.797 C 473.98,542.047 417.32,532.148 320.445,519.164 263.012,511.469 218.336,478.559 191.383,437.82 c -2.168,-12.433 -3.34,-25.215 -3.34,-38.269 0,-52.93 18.457,-101.524 49.219,-139.707 -2.735,166.285 83.633,201.976 161.777,235.871" /></g></g></svg>